# xmcd
#
# Track frame offsets: 
#        150
#        17258
#        36100
#        59248
#        77203
#        95817
#        115514
#        136745
#        164279
#        186539
#        204370
#        223707
#        243537
#        262601
#
# Disc length: 3824 seconds
#
# Revision: 3
# Processed by: cddbd v1.5.2PL0 Copyright (c) Steve Scherf et al.
# Submitted via: ExactAudioCopyFreeDBPlugin 1.0
#
DISCID=bf0eee0e
DTITLE=Ana Popovic - Still Making History
DYEAR=2007
DGENRE=Blues
TTITLE0=U Complete Me
TTITLE1=Hold On
TTITLE2=Between Our Worlds
TTITLE3=Is This Everything There Is?
TTITLE4=Hungry
TTITLE5=Doubt Everyone But Me
TTITLE6=You Don't Move Me
TTITLE7=Still Making History
TTITLE8=My Favorite Night
TTITLE9=How'd You Learn To Shake It Like That?
TTITLE10=Shadow After Dark
TTITLE11=Calendars
TTITLE12=Sexiest Man Alive
TTITLE13=U Complete Me  (Blues Version)
EXTD=
EXTT0=
EXTT1=
EXTT2=
EXTT3=
EXTT4=
EXTT5=
EXTT6=
EXTT7=
EXTT8=
EXTT9=
EXTT10=
EXTT11=
EXTT12=
EXTT13=
PLAYORDER=
